<svg id="icons_export" xmlns="http://www.w3.org/2000/svg" height="12em" width="12em" viewBox="0 0 192 192"><defs><style>.cls-1,.cls-2,.cls-7{fill:#fff;}.cls-1,.cls-4{opacity:0.2;}.cls-2{opacity:0;}.cls-3{opacity:0.3;}.cls-5{opacity:0.4;}.cls-6,.cls-7{opacity:0.1;}</style></defs><title>ic_beacon_front</title><polygon class="cls-1" points="104 8 136 8 144 0 104 8"/><polygon class="cls-2" points="104 8 48 96 56 120 152 104 184 48 136 8 104 8"/><polygon class="cls-3" points="152 104 120 168 168 112 192 64 152 104"/><polygon class="cls-4" points="152 104 120 168 64 176 40 160 56 120 152 104"/><polygon class="cls-5" points="88 192 120 168 64 176 56 184 88 192"/><polygon class="cls-3" points="64 176 56 184 24 168 24 152 40 160 64 176"/><polygon class="cls-6" points="40 160 56 120 48 96 24 88 8 104 24 152 40 160"/><polygon class="cls-4" points="24 168 24 152 8 104 0 104 24 168"/><polygon class="cls-1" points="0 104 8 104 24 88 40 40 8 88 0 104"/><polygon class="cls-7" points="24 88 48 96 104 8 40 40 24 88"/><polygon class="cls-7" points="168 16 144 0 136 8 184 48 192 48 168 16"/><polygon class="cls-6" points="192 48 184 48 152 104 192 64 192 48"/></svg>